<?xml version="1.0" encoding="utf-8"?>
<!-- Generator: Adobe Illustrator 18.1.0, SVG Export Plug-In . SVG Version: 6.00 Build 0)  -->
<svg version="1.1" id="Layer_1" xmlns="http://www.w3.org/2000/svg" xmlns:xlink="http://www.w3.org/1999/xlink" x="0px" y="0px"
	 viewBox="0 0 544 708.4" enable-background="new 0 0 544 708.4" xml:space="preserve">
<path fill-rule="evenodd" clip-rule="evenodd" fill="#0A314F" d="M76.1,172.9h44.7c40.3-47.8,96.3-77.4,158.2-77.4
	c61.9,0,117.9,29.6,158.2,77.4H482v366.2h-44.7c-40.3,47.8-96.3,77.4-158.2,77.4c-61.9,0-117.9-29.6-158.2-77.4H76.1V172.9z"/>
<path fill-rule="evenodd" clip-rule="evenodd" fill="#FFFFFF" d="M82.3,179.1v353.7h41.4l1.9,2.2c38.7,45.8,92.8,75.2,153.5,75.2
	c60.7,0,114.8-29.4,153.5-75.2l1.9-2.2h41.4V179.1h-41.4l-1.9-2.2c-38.7-45.8-92.8-75.2-153.5-75.2c-60.7,0-114.8,29.4-153.5,75.2
	l-1.9,2.2H82.3L82.3,179.1z M88.5,185.4h38.1l3.7-4.4c37.5-44.4,89.9-73,148.7-73c58.8,0,111.2,28.6,148.7,73l3.7,4.4h38.1v341.3
	h-38.1l-3.7,4.4c-37.5,44.4-89.9,73-148.7,73c-58.8,0-111.2-28.6-148.7-73l-3.7-4.4H88.5V185.4z"/>
<g>
	<rect x="329.4" y="548.9" fill-rule="evenodd" clip-rule="evenodd" fill="#FFFFFF" width="51.9" height="3"/>
	<rect x="173.5" y="548.9" fill-rule="evenodd" clip-rule="evenodd" fill="#FFFFFF" width="51.9" height="3"/>
</g>
<g>
	<g>
		<rect x="462.5" y="449.9" fill-rule="evenodd" clip-rule="evenodd" fill="#FFFFFF" width="3.4" height="73.7"/>
		<rect x="454.1" y="470.2" fill-rule="evenodd" clip-rule="evenodd" fill="#FFFFFF" width="3.4" height="53.5"/>
		<rect x="445.7" y="491.8" fill-rule="evenodd" clip-rule="evenodd" fill="#FFFFFF" width="3.4" height="31.9"/>
		<rect x="437.4" y="507.3" fill-rule="evenodd" clip-rule="evenodd" fill="#FFFFFF" width="3.4" height="16.3"/>
	</g>
	<g>
		<rect x="92.2" y="449.9" fill-rule="evenodd" clip-rule="evenodd" fill="#FFFFFF" width="3.4" height="73.7"/>
		<rect x="100.6" y="470.2" fill-rule="evenodd" clip-rule="evenodd" fill="#FFFFFF" width="3.4" height="53.5"/>
		<rect x="109" y="491.8" fill-rule="evenodd" clip-rule="evenodd" fill="#FFFFFF" width="3.4" height="31.9"/>
		<rect x="117.3" y="507.3" fill-rule="evenodd" clip-rule="evenodd" fill="#FFFFFF" width="3.4" height="16.3"/>
	</g>
</g>
<g>
	<g>
		<rect x="462.5" y="189" fill-rule="evenodd" clip-rule="evenodd" fill="#FFFFFF" width="3.4" height="73.7"/>
		<rect x="454.1" y="189" fill-rule="evenodd" clip-rule="evenodd" fill="#FFFFFF" width="3.4" height="53.5"/>
		<rect x="445.7" y="189" fill-rule="evenodd" clip-rule="evenodd" fill="#FFFFFF" width="3.4" height="31.9"/>
		<rect x="437.4" y="189" fill-rule="evenodd" clip-rule="evenodd" fill="#FFFFFF" width="3.4" height="16.3"/>
	</g>
	<g>
		<rect x="92.2" y="189" fill-rule="evenodd" clip-rule="evenodd" fill="#FFFFFF" width="3.4" height="73.7"/>
		<rect x="100.6" y="189" fill-rule="evenodd" clip-rule="evenodd" fill="#FFFFFF" width="3.4" height="53.5"/>
		<rect x="109" y="189" fill-rule="evenodd" clip-rule="evenodd" fill="#FFFFFF" width="3.4" height="31.9"/>
		<rect x="117.3" y="189" fill-rule="evenodd" clip-rule="evenodd" fill="#FFFFFF" width="3.4" height="16.3"/>
	</g>
</g>
<g>
	<g>
		<g>
			<path fill="#FFFFFF" d="M331.9,216.9c-0.8,0.5-1.6,1.1-2.4,1.7c-1.6,1.1-3.2,2.3-4.8,3.4c-3.2,2.3-6.3,4.8-9.4,7.3
				c-6.1,5.1-12,10.5-17.5,16.4c-2.8,2.9-5.4,6-8,9.2c-2.6,3.2-5,6.5-7.3,10c-0.9,1.4-1.8,2.8-2.7,4.2c-1-1.6-2.1-3.3-3.2-4.8
				c-2.4-3.4-4.9-6.7-7.5-9.8c-2.6-3.1-5.3-6.1-8.1-9c-5.6-5.8-11.6-11.1-17.8-16.1c-3.1-2.5-6.3-4.9-9.5-7.2
				c-1.6-1.1-3.2-2.3-4.9-3.4c-0.8-0.5-1.6-1.1-2.5-1.6c-0.8-0.5-1.7-1-2.5-1.6c0.7,0.7,1.4,1.3,2.2,2c0.7,0.7,1.4,1.4,2.1,2.1
				c1.4,1.4,2.7,2.8,4.1,4.2c2.7,2.8,5.3,5.8,7.8,8.7c5,5.9,9.6,12.1,13.8,18.6c4.1,6.4,7.8,13.1,10.7,19.9
				c1.5,3.4,2.8,6.8,3.8,10.3c0.8,2.7,1.6,5.5,2.1,8.2c0,0.2,0,0.3,0,0.5v0l-10.2,82c0,0,6.7,10.1,20.1,9.6
				c13.4-0.5,18.8-9.6,18.8-9.6l-9.4-81.5c0.5-2.8,1.1-5.6,1.9-8.4c1-3.5,2.2-6.9,3.6-10.4c2.8-6.9,6.3-13.6,10.2-20.1
				c4-6.5,8.5-12.8,13.3-18.9c2.4-3,4.9-6,7.5-8.9c1.3-1.5,2.6-2.9,4-4.3c0.7-0.7,1.4-1.4,2.1-2.1c0.7-0.7,1.4-1.4,2.1-2.1
				C333.6,215.8,332.8,216.3,331.9,216.9z M289.4,292.4L289.4,292.4C289.4,292.4,289.4,292.4,289.4,292.4L289.4,292.4z"/>
			<circle fill="#FFFFFF" cx="279.7" cy="244.7" r="11.2"/>
		</g>
	</g>
	<path fill="#602E62" d="M279.9,175.8c1.1,1.1,1.9,2.1,2.7,3.2c0.8,1.1,1.5,2.1,2.1,3.2c1.2,2.1,2.2,4.3,2.9,6.4
		c1.5,4.3,2.1,8.6,2.1,12.8c0,4.3-0.6,8.6-2.1,12.8c-0.7,2.1-1.7,4.3-2.9,6.4c-0.6,1.1-1.3,2.1-2.1,3.2c-0.8,1.1-1.6,2.1-2.7,3.2
		c-1.1-1.1-1.9-2.1-2.7-3.2c-0.8-1.1-1.5-2.1-2.1-3.2c-1.2-2.1-2.2-4.3-2.9-6.4c-1.5-4.3-2.1-8.6-2.1-12.8c0-4.3,0.6-8.6,2.1-12.8
		c0.7-2.1,1.7-4.3,2.9-6.4c0.6-1.1,1.3-2.1,2.1-3.2C278,178,278.9,176.9,279.9,175.8z"/>
	<path fill="#8DC63F" d="M279.9,117.2c1.1,1.1,1.9,2.1,2.7,3.2c0.8,1.1,1.5,2.1,2.1,3.2c1.2,2.1,2.2,4.3,2.9,6.4
		c1.5,4.3,2.1,8.6,2.1,12.8c0,4.3-0.6,8.6-2.1,12.8c-0.7,2.1-1.7,4.3-2.9,6.4c-0.6,1.1-1.3,2.1-2.1,3.2c-0.8,1.1-1.6,2.1-2.7,3.2
		c-1.1-1.1-1.9-2.1-2.7-3.2c-0.8-1.1-1.5-2.1-2.1-3.2c-1.2-2.1-2.2-4.3-2.9-6.4c-1.5-4.3-2.1-8.6-2.1-12.8c0-4.3,0.6-8.6,2.1-12.8
		c0.7-2.1,1.7-4.3,2.9-6.4c0.6-1.1,1.3-2.1,2.1-3.2C278,119.3,278.9,118.3,279.9,117.2z"/>
	<path fill="#602E62" d="M237.6,191.8c1.5,0.1,2.9,0.4,4.2,0.7c1.3,0.3,2.5,0.7,3.7,1.1c2.3,0.8,4.4,1.8,6.4,3
		c3.9,2.3,7.2,5.1,10,8.4c2.8,3.2,5.1,6.9,6.8,11.1c0.8,2.1,1.5,4.3,2,6.8c0.2,1.2,0.4,2.5,0.5,3.8c0.1,1.3,0.2,2.7,0,4.2
		c-1.5-0.1-2.9-0.4-4.2-0.7c-1.3-0.3-2.5-0.7-3.7-1.1c-2.3-0.8-4.4-1.8-6.4-3c-3.9-2.3-7.2-5.1-9.9-8.4c-2.8-3.3-5.1-6.9-6.8-11.1
		c-0.8-2.1-1.5-4.3-2-6.8c-0.2-1.2-0.4-2.5-0.5-3.8C237.5,194.7,237.5,193.3,237.6,191.8z"/>
	<path fill="#8DC63F" d="M203.2,142.9c1.5,0.1,2.9,0.4,4.2,0.7c1.3,0.3,2.5,0.7,3.7,1.1c2.3,0.8,4.4,1.8,6.4,3
		c3.9,2.3,7.2,5.1,10,8.4c2.8,3.2,5.1,6.9,6.8,11.1c0.8,2.1,1.5,4.3,2,6.8c0.2,1.2,0.4,2.5,0.5,3.8c0.1,1.3,0.2,2.7,0,4.2
		c-1.5-0.1-2.9-0.4-4.2-0.7c-1.3-0.3-2.5-0.7-3.7-1.1c-2.3-0.8-4.4-1.8-6.4-3c-3.9-2.3-7.2-5.2-9.9-8.4c-2.8-3.3-5.1-6.9-6.8-11.1
		c-0.8-2.1-1.5-4.3-2-6.8c-0.2-1.2-0.4-2.5-0.5-3.8C203.1,145.8,203,144.4,203.2,142.9z"/>
	<path fill="#1E6C50" d="M247.2,142.9c1.4,0.7,2.5,1.4,3.6,2.2c1.1,0.8,2,1.6,2.9,2.4c1.8,1.7,3.4,3.4,4.7,5.2
		c2.7,3.6,4.6,7.5,5.9,11.6c1.3,4.1,2,8.3,2,12.9c0,2.3-0.3,4.6-0.8,7c-0.3,1.2-0.6,2.4-1,3.7c-0.4,1.3-0.9,2.5-1.6,3.9
		c-1.4-0.7-2.5-1.4-3.6-2.2c-1.1-0.8-2-1.6-3-2.4c-1.8-1.7-3.4-3.4-4.7-5.2c-2.7-3.6-4.6-7.5-5.9-11.6c-1.3-4.1-2-8.4-1.9-12.9
		c0-2.3,0.3-4.6,0.8-7c0.3-1.2,0.6-2.4,1-3.7C246,145.5,246.5,144.2,247.2,142.9z"/>
	<path fill="#E08D26" d="M199.2,238.3c1.3-0.8,2.5-1.4,3.8-1.9c1.2-0.5,2.4-0.9,3.6-1.2c2.4-0.7,4.7-1.1,6.9-1.3c4.5-0.4,8.8,0,13,1
		c4.2,1,8.2,2.6,12,5.1c1.9,1.2,3.8,2.6,5.6,4.3c0.9,0.8,1.8,1.8,2.6,2.8c0.9,1,1.7,2.1,2.5,3.4c-1.3,0.8-2.5,1.4-3.8,1.9
		c-1.2,0.5-2.4,0.9-3.6,1.3c-2.4,0.7-4.7,1.1-6.9,1.3c-4.5,0.4-8.8,0-13-1c-4.2-1-8.2-2.7-12-5.1c-1.9-1.2-3.8-2.6-5.6-4.3
		c-0.9-0.8-1.8-1.8-2.6-2.8C200.8,240.7,199.9,239.6,199.2,238.3z"/>
	<path fill="#729B42" d="M209.3,286c0.4-1.5,0.9-2.7,1.5-3.9c0.6-1.2,1.2-2.3,1.8-3.4c1.3-2.1,2.7-4,4.2-5.6c3-3.3,6.5-6,10.2-8
		c3.7-2.1,7.8-3.6,12.3-4.4c2.2-0.4,4.6-0.6,7-0.6c1.2,0,2.5,0.1,3.8,0.3c1.3,0.2,2.7,0.4,4.1,0.8c-0.4,1.5-0.9,2.7-1.5,3.9
		c-0.6,1.2-1.2,2.3-1.8,3.4c-1.3,2.1-2.7,4-4.2,5.6c-3.1,3.3-6.5,6-10.3,8c-3.8,2.1-7.8,3.6-12.3,4.4c-2.2,0.4-4.6,0.6-7,0.6
		c-1.2,0-2.5-0.1-3.8-0.3C212.1,286.7,210.8,286.5,209.3,286z"/>
	<path fill="#8DC63F" d="M166.1,204.4c1.4-0.7,2.7-1.1,3.9-1.5c1.3-0.4,2.5-0.6,3.7-0.8c2.4-0.4,4.8-0.6,7-0.5
		c4.5,0.1,8.8,1,12.8,2.4c4,1.5,7.8,3.5,11.4,6.3c1.8,1.4,3.5,3,5,4.9c0.8,0.9,1.6,2,2.3,3c0.7,1.1,1.5,2.3,2.1,3.7
		c-1.4,0.7-2.7,1.1-4,1.5c-1.3,0.4-2.5,0.6-3.7,0.8c-2.4,0.4-4.8,0.6-7,0.5c-4.5-0.1-8.8-1-12.8-2.5c-4-1.5-7.8-3.5-11.4-6.4
		c-1.8-1.4-3.5-3-5-4.9c-0.8-0.9-1.6-1.9-2.3-3C167.5,206.9,166.7,205.7,166.1,204.4z"/>
	<path fill="#1E6C50" d="M191.8,176.7c1.5-0.2,2.9-0.3,4.2-0.3c1.3,0,2.6,0.1,3.8,0.2c2.4,0.3,4.7,0.8,6.9,1.4
		c4.3,1.3,8.2,3.3,11.6,5.9c3.5,2.5,6.6,5.5,9.2,9.2c1.3,1.8,2.5,3.9,3.5,6.1c0.5,1.1,1,2.3,1.4,3.6c0.4,1.3,0.8,2.6,1,4.1
		c-1.5,0.3-2.9,0.3-4.2,0.3c-1.3,0-2.6-0.1-3.8-0.2c-2.4-0.3-4.7-0.8-6.9-1.4c-4.3-1.3-8.2-3.4-11.6-5.9c-3.5-2.5-6.6-5.6-9.2-9.3
		c-1.3-1.8-2.5-3.9-3.5-6.1c-0.5-1.1-1-2.3-1.4-3.6C192.4,179.5,192,178.2,191.8,176.7z"/>
	<path fill="#1E6C50" d="M164.6,261.8c1-1.2,2-2.1,3-2.9c1-0.8,2-1.6,3.1-2.3c2.1-1.4,4.1-2.4,6.2-3.3c4.2-1.7,8.4-2.6,12.7-2.9
		c4.3-0.3,8.6,0.1,13,1.2c2.2,0.6,4.4,1.4,6.6,2.5c1.1,0.5,2.2,1.2,3.3,1.9c1.1,0.7,2.2,1.5,3.4,2.5c-1,1.2-2,2.1-3,2.9
		c-1,0.8-2,1.6-3.1,2.3c-2.1,1.4-4.1,2.4-6.2,3.3c-4.2,1.7-8.4,2.6-12.7,2.9c-4.3,0.3-8.6-0.1-13-1.3c-2.2-0.6-4.4-1.4-6.6-2.5
		c-1.1-0.5-2.2-1.1-3.3-1.8C166.9,263.6,165.7,262.8,164.6,261.8z"/>
	<path fill="#602E62" d="M322.3,191.8c-1.5,0.1-2.9,0.4-4.2,0.7c-1.3,0.3-2.5,0.7-3.7,1.1c-2.3,0.8-4.4,1.8-6.4,3
		c-3.9,2.3-7.2,5.1-10,8.4c-2.8,3.2-5.1,6.9-6.8,11.1c-0.8,2.1-1.5,4.3-2,6.8c-0.2,1.2-0.4,2.5-0.5,3.8c-0.1,1.3-0.2,2.7,0,4.2
		c1.5-0.1,2.9-0.4,4.2-0.7c1.3-0.3,2.5-0.7,3.7-1.1c2.3-0.8,4.4-1.8,6.4-3c3.9-2.3,7.2-5.1,9.9-8.4c2.8-3.3,5.1-6.9,6.8-11.1
		c0.8-2.1,1.5-4.3,2-6.8c0.2-1.2,0.4-2.5,0.5-3.8C322.4,194.7,322.4,193.3,322.3,191.8z"/>
	<path fill="#8DC63F" d="M356.7,142.9c-1.5,0.1-2.9,0.4-4.2,0.7c-1.3,0.3-2.5,0.7-3.7,1.1c-2.3,0.8-4.4,1.8-6.4,3
		c-3.9,2.3-7.2,5.1-10,8.4c-2.8,3.2-5.1,6.9-6.8,11.1c-0.8,2.1-1.5,4.3-2,6.8c-0.2,1.2-0.4,2.5-0.5,3.8c-0.1,1.3-0.2,2.7,0,4.2
		c1.5-0.1,2.9-0.4,4.2-0.7c1.3-0.3,2.5-0.7,3.7-1.1c2.3-0.8,4.4-1.8,6.4-3c3.9-2.3,7.2-5.2,9.9-8.4c2.8-3.3,5.1-6.9,6.8-11.1
		c0.8-2.1,1.5-4.3,2-6.8c0.2-1.2,0.4-2.5,0.5-3.8C356.8,145.8,356.9,144.4,356.7,142.9z"/>
	<path fill="#1E6C50" d="M312.7,142.9c-1.4,0.7-2.5,1.4-3.6,2.2c-1.1,0.8-2,1.6-2.9,2.4c-1.8,1.7-3.4,3.4-4.7,5.2
		c-2.7,3.6-4.6,7.5-5.9,11.6c-1.3,4.1-2,8.3-2,12.9c0,2.3,0.3,4.6,0.8,7c0.3,1.2,0.6,2.4,1,3.7c0.4,1.3,0.9,2.5,1.6,3.9
		c1.4-0.7,2.5-1.4,3.6-2.2c1.1-0.8,2-1.6,3-2.4c1.8-1.7,3.4-3.4,4.7-5.2c2.7-3.6,4.6-7.5,5.9-11.6c1.3-4.1,2-8.4,1.9-12.9
		c0-2.3-0.3-4.6-0.8-7c-0.3-1.2-0.6-2.4-1-3.7C313.9,145.5,313.4,144.2,312.7,142.9z"/>
	<path fill="#E08D26" d="M360.7,238.3c-1.3-0.8-2.5-1.4-3.8-1.9c-1.2-0.5-2.4-0.9-3.6-1.2c-2.4-0.7-4.7-1.1-6.9-1.3
		c-4.5-0.4-8.8,0-13,1c-4.2,1-8.2,2.6-12,5.1c-1.9,1.2-3.8,2.6-5.6,4.3c-0.9,0.8-1.8,1.8-2.6,2.8c-0.9,1-1.7,2.1-2.5,3.4
		c1.3,0.8,2.5,1.4,3.8,1.9c1.2,0.5,2.4,0.9,3.6,1.3c2.4,0.7,4.7,1.1,6.9,1.3c4.5,0.4,8.8,0,13-1c4.2-1,8.2-2.7,12-5.1
		c1.9-1.2,3.8-2.6,5.6-4.3c0.9-0.8,1.8-1.8,2.6-2.8C359.1,240.7,360,239.6,360.7,238.3z"/>
	<path fill="#729B42" d="M350.6,286c-0.4-1.5-0.9-2.7-1.5-3.9c-0.6-1.2-1.2-2.3-1.8-3.4c-1.3-2.1-2.7-4-4.2-5.6c-3-3.3-6.5-6-10.2-8
		c-3.7-2.1-7.8-3.6-12.3-4.4c-2.2-0.4-4.6-0.6-7-0.6c-1.2,0-2.5,0.1-3.8,0.3c-1.3,0.2-2.7,0.4-4.1,0.8c0.4,1.5,0.9,2.7,1.5,3.9
		c0.6,1.2,1.2,2.3,1.8,3.4c1.3,2.1,2.7,4,4.2,5.6c3.1,3.3,6.5,6,10.3,8c3.8,2.1,7.8,3.6,12.3,4.4c2.2,0.4,4.6,0.6,7,0.6
		c1.2,0,2.5-0.1,3.8-0.3C347.8,286.7,349.1,286.5,350.6,286z"/>
	<path fill="#8DC63F" d="M393.8,204.4c-1.4-0.7-2.7-1.1-3.9-1.5c-1.3-0.4-2.5-0.6-3.7-0.8c-2.4-0.4-4.8-0.6-7-0.5
		c-4.5,0.1-8.8,1-12.8,2.4c-4,1.5-7.8,3.5-11.4,6.3c-1.8,1.4-3.5,3-5,4.9c-0.8,0.9-1.6,2-2.3,3c-0.7,1.1-1.5,2.3-2.1,3.7
		c1.4,0.7,2.7,1.1,4,1.5c1.3,0.4,2.5,0.6,3.7,0.8c2.4,0.4,4.8,0.6,7,0.5c4.5-0.1,8.8-1,12.8-2.5c4-1.5,7.8-3.5,11.4-6.4
		c1.8-1.4,3.5-3,5-4.9c0.8-0.9,1.6-1.9,2.3-3C392.4,206.9,393.2,205.7,393.8,204.4z"/>
	<path fill="#1E6C50" d="M368.1,176.7c-1.5-0.2-2.9-0.3-4.2-0.3c-1.3,0-2.6,0.1-3.8,0.2c-2.4,0.3-4.7,0.8-6.9,1.4
		c-4.3,1.3-8.2,3.3-11.6,5.9c-3.5,2.5-6.6,5.5-9.2,9.2c-1.3,1.8-2.5,3.9-3.5,6.1c-0.5,1.1-1,2.3-1.4,3.6c-0.4,1.3-0.8,2.6-1,4.1
		c1.5,0.3,2.9,0.3,4.2,0.3c1.3,0,2.6-0.1,3.8-0.2c2.4-0.3,4.7-0.8,6.9-1.4c4.3-1.3,8.2-3.4,11.6-5.9c3.5-2.5,6.6-5.6,9.2-9.3
		c1.3-1.8,2.5-3.9,3.5-6.1c0.5-1.1,1-2.3,1.4-3.6C367.5,179.5,367.9,178.2,368.1,176.7z"/>
	<path fill="#1E6C50" d="M395.3,261.8c-1-1.2-2-2.1-3-2.9c-1-0.8-2-1.6-3.1-2.3c-2.1-1.4-4.1-2.4-6.2-3.3c-4.2-1.7-8.4-2.6-12.7-2.9
		c-4.3-0.3-8.6,0.1-13,1.2c-2.2,0.6-4.4,1.4-6.6,2.5c-1.1,0.5-2.2,1.2-3.3,1.9c-1.1,0.7-2.2,1.5-3.4,2.5c1,1.2,2,2.1,3,2.9
		c1,0.8,2,1.6,3.1,2.3c2.1,1.4,4.1,2.4,6.2,3.3c4.2,1.7,8.4,2.6,12.7,2.9c4.3,0.3,8.6-0.1,13-1.3c2.2-0.6,4.4-1.4,6.6-2.5
		c1.1-0.5,2.2-1.1,3.3-1.8C393,263.6,394.1,262.8,395.3,261.8z"/>
</g>
<g>
	<path fill="#1E6C50" d="M101.7,151.2c0.5,0.4,0.8,0.8,1.1,1.3c0.3,0.5,0.4,1,0.5,1.5c0.1,0.5,0,1.1-0.1,1.6
		c-0.1,0.5-0.4,1.1-0.7,1.5c-0.4,0.5-0.8,0.8-1.3,1.1c-0.5,0.3-1,0.4-1.5,0.5c-0.5,0.1-1.1,0-1.6-0.1c-0.5-0.1-1.1-0.4-1.5-0.7
		c-0.5-0.4-0.8-0.8-1.1-1.3c-0.3-0.5-0.4-1-0.5-1.5c-0.1-0.5,0-1.1,0.1-1.6c0.1-0.5,0.4-1.1,0.7-1.5c0.4-0.5,0.8-0.8,1.3-1.1
		c0.5-0.3,1-0.4,1.5-0.5c0.5-0.1,1.1,0,1.6,0.1C100.7,150.6,101.2,150.8,101.7,151.2z"/>
	<path fill="#602E62" d="M111.4,129.4l15,14.1l-3.9,4.1l-15-14.1l-3.2,3.4l-3.6-3.4l10.3-10.9l3.6,3.4L111.4,129.4z"/>
	<path fill="#602E62" d="M142.1,128.8l-7-8.1l-4.5,3.9l7,8.1l-4.3,3.7l-16.7-19.3l4.3-3.7l6.3,7.3l4.5-3.9l-6.3-7.3l4.3-3.7
		l16.7,19.3L142.1,128.8z"/>
	<path fill="#602E62" d="M152.5,120.5l-14.5-21l10.1-7l2.9,4.2l-5.6,3.9l2.8,4.1l5.1-3.6l2.7,3.9l-5.1,3.6l3.1,4.5l5.9-4.1l3,4.3
		L152.5,120.5z"/>
	<path fill="#602E62" d="M184.1,82c0.6,1.3,1,2.5,1,3.6c0.1,1.1-0.1,2.1-0.4,3.1c-0.4,0.9-0.9,1.7-1.5,2.4c-0.7,0.7-1.4,1.2-2.3,1.7
		l-2.2,1.1l4.1,8.3l-5.1,2.5l-11.2-22.9l7.1-3.5c0.8-0.4,1.7-0.7,2.6-0.9c0.9-0.2,1.9-0.1,2.8,0.1c0.9,0.2,1.9,0.7,2.7,1.4
		C182.6,79.7,183.4,80.7,184.1,82z M179.3,84.5c-0.5-1-1.1-1.7-1.8-1.9c-0.7-0.2-1.4-0.1-2.1,0.2l-1.6,0.8l2.9,6l1.6-0.8
		c0.7-0.3,1.2-0.9,1.4-1.7C179.9,86.4,179.8,85.5,179.3,84.5z"/>
	<path fill="#602E62" d="M206.6,92.1l-2.6-4l-5.4,2l0.6,4.7l-5.4,2l-3-26.1l6.8-2.5L212.2,90L206.6,92.1z M196.1,74.7l-0.1,0
		l1.7,10.9l4.1-1.5L196.1,74.7z"/>
	<path fill="#602E62" d="M219.2,66.9l5.3,19.9l-5.5,1.4l-5.3-19.9l-4.5,1.2l-1.3-4.7l14.5-3.8l1.3,4.7L219.2,66.9z"/>
	<path fill="#602E62" d="M238.7,62.9l3.5,20.3l-5.6,1l-3.5-20.3l-4.6,0.8l-0.8-4.8l14.8-2.5l0.8,4.8L238.7,62.9z"/>
	<path fill="#602E62" d="M269.2,67.7c0.1,2,0,3.9-0.3,5.6c-0.3,1.7-0.9,3.2-1.6,4.4c-0.8,1.2-1.7,2.2-2.9,2.9
		c-1.2,0.7-2.5,1.1-4,1.2c-1.5,0.1-2.9-0.1-4.1-0.7c-1.3-0.6-2.3-1.4-3.3-2.5c-0.9-1.1-1.7-2.5-2.2-4.1c-0.6-1.6-0.9-3.5-1.1-5.5
		c-0.1-2,0-3.9,0.3-5.5c0.3-1.7,0.9-3.1,1.6-4.3c0.8-1.2,1.7-2.2,2.9-2.9c1.2-0.7,2.5-1.1,4-1.2c1.5-0.1,2.9,0.1,4.1,0.7
		c1.3,0.6,2.3,1.4,3.3,2.5c0.9,1.1,1.7,2.5,2.2,4.1C268.8,63.9,269.1,65.7,269.2,67.7z M263.4,68.1c-0.1-1.1-0.2-2.1-0.5-3.1
		c-0.2-0.9-0.5-1.7-0.9-2.4c-0.4-0.7-0.8-1.2-1.3-1.6c-0.5-0.4-1.1-0.5-1.7-0.5c-0.6,0-1.2,0.3-1.7,0.7c-0.5,0.4-0.8,1-1.1,1.7
		c-0.3,0.7-0.5,1.6-0.5,2.5c-0.1,1-0.1,2,0,3.1c0.1,1.1,0.2,2.1,0.4,3.1c0.2,0.9,0.5,1.8,0.9,2.4c0.4,0.7,0.8,1.2,1.3,1.6
		c0.5,0.4,1.1,0.5,1.7,0.5c0.6,0,1.2-0.3,1.6-0.7c0.5-0.4,0.8-1,1.1-1.7c0.3-0.7,0.5-1.6,0.6-2.5C263.4,70.2,263.4,69.2,263.4,68.1z
		"/>
	<path fill="#602E62" d="M287.6,81l-5.1-15.8l-0.1,0l-0.6,15.5l-5.1-0.3l1.3-25.5l6.3,0.3l5.1,16l0.1,0l0.7-15.7l5,0.2l-1.3,25.5
		L287.6,81z"/>
	<path fill="#602E62" d="M324.5,86.3c-1.2,0.4-2.7,0.4-4.4,0.1c-1.5-0.3-2.7-0.9-3.8-1.8c-1-0.9-1.9-2-2.5-3.4
		c-0.6-1.3-1-2.9-1.1-4.6c-0.1-1.7,0-3.5,0.4-5.4c0.4-1.9,1-3.7,1.9-5.2c0.8-1.5,1.8-2.8,2.9-3.7c1.1-1,2.3-1.6,3.6-2
		c1.3-0.4,2.7-0.4,4.2-0.1c1.7,0.4,3,1,4,1.8c1,0.8,1.7,1.8,2.2,2.8l-3.9,3.4c-0.3-0.7-0.7-1.2-1.1-1.6c-0.5-0.4-1.1-0.7-1.9-0.9
		c-0.8-0.2-1.4-0.1-2.1,0.2c-0.6,0.3-1.2,0.7-1.8,1.3c-0.5,0.6-1,1.4-1.4,2.3c-0.4,0.9-0.7,1.9-0.9,3c-0.2,1.1-0.4,2.1-0.4,3.1
		c0,1,0.1,1.9,0.3,2.6c0.2,0.8,0.6,1.4,1.1,2c0.5,0.5,1.1,0.9,1.8,1c0.8,0.2,1.4,0.1,2.1-0.1c0.6-0.3,1.2-0.6,1.6-1l2.3,4.6
		C326.8,85.3,325.7,85.9,324.5,86.3z"/>
	<path fill="#602E62" d="M353.7,82.3c-0.6,1.9-1.4,3.6-2.4,5c-1,1.4-2,2.6-3.2,3.4c-1.2,0.8-2.4,1.4-3.8,1.6
		c-1.4,0.2-2.7,0.1-4.2-0.4c-1.4-0.5-2.6-1.2-3.6-2.2c-0.9-1-1.6-2.2-2-3.6c-0.4-1.4-0.6-2.9-0.5-4.7c0.1-1.7,0.5-3.5,1.1-5.5
		c0.6-1.9,1.4-3.6,2.4-5c0.9-1.4,2-2.5,3.2-3.4c1.2-0.8,2.4-1.4,3.8-1.6c1.4-0.2,2.8-0.1,4.2,0.4c1.4,0.5,2.6,1.2,3.6,2.2
		c0.9,1,1.6,2.2,2.1,3.5c0.4,1.4,0.6,2.9,0.5,4.6C354.7,78.6,354.3,80.4,353.7,82.3z M348.1,80.4c0.3-1,0.6-2,0.7-3
		c0.1-1,0.2-1.8,0.1-2.6c-0.1-0.8-0.3-1.4-0.6-1.9c-0.3-0.5-0.8-0.9-1.4-1.1c-0.6-0.2-1.2-0.2-1.8,0c-0.6,0.2-1.2,0.6-1.7,1.2
		c-0.5,0.6-1,1.3-1.5,2.1c-0.4,0.8-0.8,1.8-1.2,2.8c-0.4,1-0.6,2-0.8,3c-0.2,1-0.2,1.8-0.1,2.6c0.1,0.8,0.3,1.4,0.6,2
		c0.3,0.5,0.8,0.9,1.4,1.1c0.6,0.2,1.2,0.2,1.8,0c0.6-0.2,1.1-0.6,1.7-1.2c0.5-0.6,1-1.3,1.5-2.1C347.3,82.4,347.7,81.4,348.1,80.4z
		"/>
	<path fill="#602E62" d="M355.6,97l10.6-23.2l5.3,2.4l-8.4,18.3l6.2,2.8l-2.2,4.8L355.6,97z"/>
	<path fill="#602E62" d="M372.1,105l12.6-22.1l5.1,2.9l-10,17.5l5.9,3.4l-2.6,4.6L372.1,105z"/>
	<path fill="#602E62" d="M387.8,114.3l14.6-20.9l10.1,7l-2.9,4.2l-5.6-3.9l-2.9,4.1l5.1,3.6l-2.7,3.9l-5.1-3.6l-3.1,4.5l5.9,4.1
		l-3,4.3L387.8,114.3z"/>
	<path fill="#602E62" d="M413.4,134.2c-1.1-0.5-2.3-1.2-3.5-2.2c-1.2-1-2.1-2.2-2.6-3.5c-0.5-1.3-0.8-2.7-0.7-4.2
		c0.1-1.5,0.5-3,1.2-4.5c0.7-1.5,1.7-3.1,3-4.6s2.7-2.7,4.1-3.7c1.4-0.9,2.9-1.6,4.3-1.9c1.4-0.3,2.8-0.4,4.2-0.1
		c1.3,0.3,2.6,0.9,3.7,1.9c1.3,1.1,2.2,2.3,2.7,3.5c0.5,1.2,0.7,2.4,0.6,3.5l-5.1,1.1c0.1-1.5-0.4-2.7-1.5-3.7
		c-0.6-0.5-1.3-0.8-2-0.9c-0.7-0.1-1.5,0.1-2.2,0.4c-0.8,0.3-1.5,0.7-2.3,1.4c-0.8,0.6-1.5,1.3-2.2,2.1c-0.7,0.8-1.3,1.6-1.8,2.5
		c-0.5,0.8-0.8,1.7-1,2.4c-0.2,0.8-0.2,1.5-0.1,2.2c0.1,0.7,0.5,1.3,1.1,1.8c0.7,0.6,1.3,0.9,1.9,0.9l3.1-3.6l-2.1-1.8l3.3-3.8
		l5.9,5.1l-8.9,10.3C415.6,134.9,414.5,134.6,413.4,134.2z"/>
	<path fill="#602E62" d="M420.6,141l18.5-17.5l8.5,8.9l-3.7,3.5l-4.7-4.9l-3.6,3.4l4.3,4.6l-3.5,3.3l-4.3-4.6l-4,3.8l5,5.3l-3.8,3.6
		L420.6,141z"/>
	<path fill="#1E6C50" d="M453.2,158.6c-0.5,0.4-1,0.6-1.5,0.7c-0.5,0.1-1.1,0.2-1.6,0.1c-0.5-0.1-1-0.3-1.5-0.5
		c-0.5-0.3-0.9-0.6-1.3-1.1c-0.4-0.5-0.6-1-0.7-1.5c-0.1-0.5-0.2-1.1-0.1-1.6c0.1-0.5,0.3-1,0.5-1.5c0.3-0.5,0.6-0.9,1.1-1.3
		c0.5-0.4,1-0.6,1.5-0.7c0.5-0.1,1.1-0.2,1.6-0.1c0.5,0.1,1,0.3,1.5,0.5c0.5,0.3,0.9,0.6,1.3,1.1c0.4,0.5,0.6,1,0.7,1.5
		c0.1,0.5,0.2,1.1,0.1,1.6c-0.1,0.5-0.3,1-0.5,1.5C454,157.8,453.7,158.2,453.2,158.6z"/>
</g>
<g>
	<path fill="#FFFFFF" stroke="#FFFFFF" stroke-miterlimit="10" d="M267.2,540.7c0,1.1-0.1,2.1-0.3,3c-0.2,0.9-0.5,1.7-0.9,2.4
		c-0.4,0.7-0.9,1.2-1.5,1.5c-0.6,0.4-1.2,0.5-2,0.5s-1.4-0.2-2-0.5c-0.6-0.4-1.1-0.9-1.5-1.5c-0.4-0.7-0.7-1.4-0.9-2.4
		c-0.2-0.9-0.3-1.9-0.3-3c0-1.1,0.1-2.1,0.3-3c0.2-0.9,0.5-1.7,0.9-2.3c0.4-0.6,0.9-1.1,1.5-1.5c0.6-0.4,1.3-0.5,2-0.5
		c0.7,0,1.4,0.2,2,0.5c0.6,0.4,1.1,0.9,1.5,1.5c0.4,0.6,0.7,1.4,0.9,2.3C267.1,538.6,267.2,539.6,267.2,540.7z M265.8,540.7
		c0-0.9-0.1-1.7-0.2-2.4c-0.1-0.7-0.3-1.4-0.6-1.9c-0.3-0.5-0.6-1-1-1.3c-0.4-0.3-0.9-0.5-1.4-0.5c-0.5,0-1,0.2-1.4,0.5
		c-0.4,0.3-0.7,0.8-1,1.3c-0.3,0.5-0.5,1.2-0.6,1.9c-0.1,0.7-0.2,1.5-0.2,2.4s0.1,1.7,0.2,2.4c0.1,0.7,0.3,1.4,0.6,2
		c0.3,0.6,0.6,1,1,1.3c0.4,0.3,0.9,0.5,1.4,0.5c0.5,0,1-0.2,1.4-0.5c0.4-0.3,0.7-0.8,1-1.3c0.3-0.6,0.5-1.2,0.6-2
		C265.7,542.4,265.8,541.6,265.8,540.7z"/>
	<path fill="#FFFFFF" stroke="#FFFFFF" stroke-miterlimit="10" d="M278.7,547.8v-6.7h-5.4v6.7h-1.4v-14.2h1.4v6.2h5.4v-6.2h1.4v14.2
		H278.7z"/>
	<path fill="#FFFFFF" stroke="#FFFFFF" stroke-miterlimit="10" d="M285.3,547.8v-14.2h1.4v14.2H285.3z"/>
	<path fill="#FFFFFF" stroke="#FFFFFF" stroke-miterlimit="10" d="M300.7,540.7c0,1.1-0.1,2.1-0.3,3c-0.2,0.9-0.5,1.7-0.9,2.4
		c-0.4,0.7-0.9,1.2-1.5,1.5c-0.6,0.4-1.2,0.5-2,0.5s-1.4-0.2-2-0.5c-0.6-0.4-1.1-0.9-1.5-1.5c-0.4-0.7-0.7-1.4-0.9-2.4
		c-0.2-0.9-0.3-1.9-0.3-3c0-1.1,0.1-2.1,0.3-3c0.2-0.9,0.5-1.7,0.9-2.3c0.4-0.6,0.9-1.1,1.5-1.5c0.6-0.4,1.3-0.5,2-0.5
		c0.7,0,1.4,0.2,2,0.5c0.6,0.4,1.1,0.9,1.5,1.5c0.4,0.6,0.7,1.4,0.9,2.3C300.6,538.6,300.7,539.6,300.7,540.7z M299.3,540.7
		c0-0.9-0.1-1.7-0.2-2.4c-0.1-0.7-0.3-1.4-0.6-1.9c-0.3-0.5-0.6-1-1-1.3c-0.4-0.3-0.9-0.5-1.4-0.5c-0.5,0-1,0.2-1.4,0.5
		c-0.4,0.3-0.7,0.8-1,1.3c-0.3,0.5-0.5,1.2-0.6,1.9c-0.1,0.7-0.2,1.5-0.2,2.4s0.1,1.7,0.2,2.4c0.1,0.7,0.3,1.4,0.6,2
		c0.3,0.6,0.6,1,1,1.3c0.4,0.3,0.9,0.5,1.4,0.5c0.5,0,1-0.2,1.4-0.5c0.4-0.3,0.7-0.8,1-1.3c0.3-0.6,0.5-1.2,0.6-2
		C299.2,542.4,299.3,541.6,299.3,540.7z"/>
	<path fill="#FFFFFF" stroke="#FFFFFF" stroke-miterlimit="10" d="M238.6,568.9c-0.1,0.6-0.4,1.2-0.7,1.7c-0.3,0.5-0.7,0.9-1.3,1.1
		c-0.5,0.3-1.2,0.4-1.9,0.4c-0.8,0-1.4-0.1-1.9-0.4c-0.5-0.3-0.9-0.6-1.2-1.1c-0.3-0.5-0.5-1-0.7-1.7c-0.1-0.6-0.2-1.3-0.2-2.1v-9.2
		h1.4v9c0,0.5,0,1,0.1,1.5c0.1,0.5,0.2,1,0.4,1.3c0.2,0.4,0.5,0.7,0.8,1c0.3,0.2,0.8,0.4,1.3,0.4c0.5,0,1-0.1,1.3-0.4
		c0.3-0.2,0.6-0.6,0.8-1c0.2-0.4,0.3-0.8,0.4-1.3c0.1-0.5,0.1-1,0.1-1.5v-9h1.4v9.2C238.8,567.6,238.8,568.3,238.6,568.9z"/>
	<path fill="#FFFFFF" stroke="#FFFFFF" stroke-miterlimit="10" d="M250.2,571.8l-4.9-11.8h-0.1v11.8h-1.3v-14.2h1.7l4.9,11.8h0.1
		v-11.8h1.3v14.2H250.2z"/>
	<path fill="#FFFFFF" stroke="#FFFFFF" stroke-miterlimit="10" d="M257.1,571.8v-14.2h1.4v14.2H257.1z"/>
	<path fill="#FFFFFF" stroke="#FFFFFF" stroke-miterlimit="10" d="M267.6,571.8h-1.8l-3.5-14.2h1.5l2.9,12.6h0l2.9-12.6h1.5
		L267.6,571.8z"/>
	<path fill="#FFFFFF" stroke="#FFFFFF" stroke-miterlimit="10" d="M274.9,571.8v-14.2h5.7v1.2h-4.3v5h4.1v1.2h-4.1v5.5h4.5v1.3
		H274.9z"/>
	<path fill="#FFFFFF" stroke="#FFFFFF" stroke-miterlimit="10" d="M291,571.8l-2.6-6.6h-1.8v6.6h-1.4v-14.2h3.4
		c0.5,0,0.9,0.1,1.4,0.2c0.4,0.1,0.8,0.3,1.2,0.6c0.3,0.3,0.6,0.7,0.8,1.2c0.2,0.5,0.3,1.1,0.3,1.8c0,0.6-0.1,1.1-0.2,1.5
		c-0.2,0.4-0.4,0.8-0.6,1.1c-0.2,0.3-0.5,0.5-0.8,0.7c-0.3,0.2-0.6,0.3-0.9,0.3l2.8,6.8H291z M290.9,561.4c0-0.5-0.1-0.9-0.2-1.3
		c-0.1-0.3-0.3-0.6-0.6-0.8c-0.2-0.2-0.5-0.3-0.8-0.4c-0.3-0.1-0.6-0.1-0.9-0.1h-1.8v5.3h1.9c0.8,0,1.4-0.2,1.8-0.7
		C290.7,563,290.9,562.3,290.9,561.4z"/>
	<path fill="#FFFFFF" stroke="#FFFFFF" stroke-miterlimit="10" d="M302.9,568.2c0,0.6-0.1,1.2-0.3,1.7c-0.2,0.5-0.4,0.9-0.8,1.2
		c-0.3,0.3-0.7,0.6-1.2,0.8c-0.4,0.2-0.9,0.3-1.4,0.3c-0.7,0-1.4-0.2-2-0.5c-0.6-0.3-1.1-0.7-1.5-1.2l0.9-1c0.3,0.4,0.7,0.8,1.2,1
		c0.5,0.2,0.9,0.4,1.4,0.4c0.6,0,1.2-0.2,1.6-0.7s0.7-1.1,0.7-1.9c0-0.4-0.1-0.8-0.2-1.1c-0.1-0.3-0.3-0.6-0.5-0.8
		c-0.2-0.2-0.5-0.5-0.8-0.6c-0.3-0.2-0.6-0.4-0.9-0.5c-0.4-0.2-0.8-0.4-1.1-0.6c-0.3-0.2-0.6-0.5-0.9-0.8c-0.3-0.3-0.5-0.7-0.6-1.1
		c-0.2-0.4-0.2-0.9-0.2-1.5c0-0.7,0.1-1.2,0.3-1.7c0.2-0.5,0.5-0.9,0.8-1.2c0.3-0.3,0.7-0.6,1.2-0.7c0.4-0.2,0.9-0.2,1.3-0.2
		c0.6,0,1.2,0.1,1.7,0.3c0.5,0.2,0.9,0.6,1.3,1l-0.9,1c-0.3-0.4-0.6-0.7-0.9-0.8c-0.4-0.2-0.8-0.3-1.2-0.3c-0.3,0-0.6,0-0.8,0.2
		c-0.3,0.1-0.5,0.3-0.7,0.5c-0.2,0.2-0.4,0.5-0.5,0.8c-0.1,0.3-0.2,0.7-0.2,1.2c0,0.4,0.1,0.7,0.2,1c0.1,0.3,0.3,0.6,0.5,0.8
		c0.2,0.2,0.4,0.4,0.7,0.6c0.3,0.2,0.6,0.3,0.9,0.5c0.4,0.2,0.7,0.4,1.1,0.6c0.4,0.2,0.7,0.5,1,0.8c0.3,0.3,0.5,0.7,0.7,1.1
		C302.8,567.1,302.9,567.6,302.9,568.2z"/>
	<path fill="#FFFFFF" stroke="#FFFFFF" stroke-miterlimit="10" d="M307.5,571.8v-14.2h1.4v14.2H307.5z"/>
	<path fill="#FFFFFF" stroke="#FFFFFF" stroke-miterlimit="10" d="M316.6,558.8v13h-1.4v-13h-2.7v-1.2h6.8v1.2H316.6z"/>
	<path fill="#FFFFFF" stroke="#FFFFFF" stroke-miterlimit="10" d="M326.2,566v5.8h-1.4V566l-3.5-8.3h1.5l2.7,6.9l2.7-6.9h1.5
		L326.2,566z"/>
</g>
<g>
	<polygon fill-rule="evenodd" clip-rule="evenodd" fill="#FFFFFF" points="405,326.5 372,326.5 338,326.5 305,326.5 305,383.6 
		338,383.6 372,383.6 405,383.6 383.7,354.6 	"/>
	<polygon fill-rule="evenodd" clip-rule="evenodd" fill="#FFFFFF" points="339,326.5 306,326.5 272,326.5 239,326.5 239,383.6 
		272,383.6 306,383.6 339,383.6 317.7,354.6 	"/>
	<polygon fill-rule="evenodd" clip-rule="evenodd" fill="#FFFFFF" points="155,383.6 188,383.6 222,383.6 255,383.6 255,326.5 
		222,326.5 188,326.5 155,326.5 176.3,355.5 	"/>
</g>
<g>
	<path fill="#1E6C50" d="M136.6,589.2c-0.4,0.4-0.9,0.7-1.4,0.9c-0.5,0.2-1.1,0.3-1.6,0.3c-0.5,0-1.1-0.1-1.6-0.3
		c-0.5-0.2-1-0.5-1.4-1c-0.4-0.4-0.7-0.9-0.9-1.4c-0.2-0.5-0.3-1.1-0.3-1.6c0-0.5,0.1-1.1,0.3-1.6c0.2-0.5,0.5-1,1-1.4
		c0.4-0.4,0.9-0.7,1.4-0.9c0.5-0.2,1.1-0.3,1.6-0.3c0.5,0,1.1,0.1,1.6,0.3c0.5,0.2,1,0.5,1.4,1c0.4,0.4,0.7,0.9,0.9,1.4
		c0.2,0.5,0.3,1.1,0.3,1.6c0,0.5-0.1,1.1-0.3,1.6C137.3,588.3,137,588.8,136.6,589.2z"/>
	<path fill="#602E62" d="M163.9,613.3c-1.2,1.6-2.5,2.9-3.9,4c-1.4,1-2.8,1.8-4.1,2.2c-1.4,0.4-2.8,0.5-4.1,0.3
		c-1.4-0.2-2.6-0.8-3.8-1.7c-1.2-0.9-2.1-2-2.6-3.3c-0.6-1.3-0.8-2.6-0.8-4c0.1-1.4,0.4-3,1.1-4.6c0.7-1.6,1.6-3.2,2.8-4.8
		c1.2-1.6,2.5-2.9,3.9-3.9c1.4-1,2.7-1.7,4.1-2.2c1.4-0.4,2.7-0.5,4.1-0.3c1.3,0.2,2.6,0.8,3.8,1.8c1.2,0.9,2.1,2,2.6,3.3
		c0.6,1.2,0.8,2.6,0.8,4c0,1.4-0.4,2.9-1,4.5C166,610.1,165.1,611.7,163.9,613.3z M159.2,609.7c0.7-0.9,1.2-1.7,1.7-2.6
		c0.4-0.9,0.8-1.7,0.9-2.4c0.2-0.7,0.2-1.4,0-2c-0.1-0.6-0.5-1.1-1-1.5c-0.5-0.4-1.1-0.6-1.7-0.6c-0.6,0-1.3,0.2-2,0.5
		c-0.7,0.4-1.4,0.9-2.1,1.5c-0.7,0.7-1.4,1.4-2.1,2.3c-0.7,0.9-1.2,1.7-1.7,2.6c-0.5,0.9-0.8,1.7-0.9,2.4c-0.2,0.7-0.2,1.4,0,2.1
		c0.1,0.6,0.5,1.1,1,1.5c0.5,0.4,1.1,0.6,1.7,0.6c0.6,0,1.3-0.2,2-0.6c0.7-0.4,1.4-0.9,2.1-1.5C157.8,611.3,158.5,610.6,159.2,609.7
		z"/>
	<path fill="#602E62" d="M181.4,615.4l-2.7,4.5l5.2,3.1l-2.5,4.2l-5.2-3.1l-5.2,8.7l-5-3l13-21.9l10.7,6.3l-2.6,4.5L181.4,615.4z"/>
	<path fill="#602E62" d="M200.8,647.6l8.8-23.9l11.6,4.3l-1.8,4.8l-6.4-2.3l-1.7,4.7l5.9,2.2l-1.6,4.5l-5.9-2.2l-1.9,5.1l6.8,2.5
		l-1.8,4.9L200.8,647.6z"/>
	<path fill="#602E62" d="M244.2,647c-0.4,1.9-1,3.5-1.8,4.9c-0.8,1.4-1.7,2.6-2.8,3.5c-1.1,0.9-2.3,1.5-3.8,1.8
		c-1.4,0.3-3,0.2-4.8-0.2l-7-1.6l5.7-24.8l7,1.6c1.8,0.4,3.2,1.1,4.4,1.9c1.2,0.9,2,2,2.6,3.2c0.6,1.3,0.9,2.7,1,4.4
		C244.8,643.3,244.7,645.1,244.2,647z M238.6,645.7c0.6-2.5,0.6-4.5,0-6s-1.5-2.4-2.9-2.7l-1.4-0.3l-3.4,15l1.4,0.3
		c1.4,0.3,2.6-0.1,3.8-1.2C237.2,649.9,238,648.2,238.6,645.7z"/>
	<path fill="#602E62" d="M270.1,657.1c-0.4,1.2-1,2.2-1.8,3.1c-0.8,0.9-1.7,1.5-2.9,1.9c-1.1,0.4-2.5,0.6-4,0.5
		c-1.6-0.1-2.8-0.5-3.9-1.1c-1-0.6-1.8-1.4-2.5-2.4c-0.6-1-1-2.1-1.2-3.3c-0.2-1.2-0.2-2.6-0.1-4l1.4-16l5.8,0.5l-1.3,15.5
		c-0.1,0.7-0.1,1.4,0,2c0,0.6,0.1,1.2,0.3,1.6c0.2,0.5,0.4,0.8,0.8,1.1c0.3,0.3,0.8,0.5,1.4,0.5c0.6,0,1.1,0,1.4-0.3
		c0.4-0.2,0.7-0.6,1-1c0.3-0.4,0.4-0.9,0.6-1.6c0.1-0.6,0.2-1.3,0.3-2l1.3-15.5l5.7,0.5l-1.4,16
		C270.8,654.6,270.5,655.9,270.1,657.1z"/>
	<path fill="#602E62" d="M295.9,661.7c-1.1,0.7-2.5,1.1-4.3,1.2c-1.5,0.1-2.9-0.2-4.1-0.8c-1.2-0.6-2.3-1.5-3.2-2.6
		c-0.9-1.1-1.7-2.5-2.2-4.1c-0.6-1.6-0.9-3.4-1-5.4c-0.1-2,0-3.8,0.4-5.5c0.4-1.7,1-3.1,1.8-4.3c0.8-1.2,1.8-2.2,3-2.9
		c1.2-0.7,2.5-1.1,4-1.2c1.7-0.1,3.1,0.1,4.3,0.7c1.2,0.6,2.1,1.3,2.9,2.1l-2.9,4.3c-0.5-0.6-1-1-1.5-1.3c-0.6-0.3-1.2-0.4-2.1-0.4
		c-0.8,0-1.4,0.3-2,0.7c-0.5,0.4-1,1-1.4,1.7c-0.4,0.7-0.6,1.6-0.8,2.6c-0.1,1-0.2,2-0.1,3.1c0.1,1.1,0.2,2.1,0.4,3.1
		c0.2,0.9,0.6,1.8,1,2.5c0.4,0.7,0.9,1.2,1.5,1.6c0.6,0.4,1.3,0.5,2,0.5c0.8,0,1.4-0.3,2-0.7c0.6-0.4,1-0.9,1.3-1.4l3.4,3.8
		C297.9,660.2,297,661,295.9,661.7z"/>
	<path fill="#602E62" d="M320.3,658.6l-1.9-4.4l-5.6,1l-0.2,4.8l-5.7,1l1.5-26.2l7.1-1.3l10.6,24L320.3,658.6z M313,639.6l-0.1,0
		l-0.2,11l4.3-0.8L313,639.6z"/>
	<path fill="#602E62" d="M337.5,632.8l6.1,19.7l-5.4,1.7l-6.1-19.7l-4.5,1.4l-1.5-4.7l14.3-4.5l1.5,4.7L337.5,632.8z"/>
	<path fill="#602E62" d="M357.8,647.2l-10.1-23.4l5.3-2.3l10.1,23.4L357.8,647.2z"/>
	<path fill="#602E62" d="M384.4,618.9c1,1.7,1.8,3.4,2.2,5.1c0.5,1.7,0.6,3.2,0.5,4.7c-0.1,1.4-0.6,2.7-1.3,3.9
		c-0.7,1.2-1.7,2.1-3,2.9c-1.3,0.8-2.6,1.2-4,1.2c-1.4,0.1-2.7-0.2-4-0.8c-1.3-0.6-2.6-1.5-3.8-2.7c-1.2-1.2-2.4-2.7-3.4-4.4
		c-1-1.7-1.8-3.4-2.2-5.1c-0.5-1.6-0.6-3.2-0.5-4.6c0.1-1.4,0.6-2.7,1.3-3.9c0.7-1.2,1.7-2.1,3.1-2.9c1.3-0.8,2.6-1.2,4-1.2
		c1.4-0.1,2.7,0.2,4,0.8c1.3,0.6,2.6,1.5,3.8,2.6C382.3,615.7,383.4,617.1,384.4,618.9z M379.3,621.9c-0.6-1-1.2-1.8-1.8-2.5
		c-0.6-0.7-1.3-1.3-1.9-1.8c-0.6-0.4-1.3-0.7-1.9-0.8c-0.6-0.1-1.2,0-1.8,0.3c-0.6,0.3-1,0.8-1.2,1.4c-0.2,0.6-0.3,1.3-0.2,2
		c0.1,0.8,0.3,1.6,0.6,2.5c0.3,0.9,0.8,1.8,1.4,2.8c0.6,1,1.2,1.8,1.8,2.6c0.6,0.7,1.2,1.3,1.9,1.8c0.6,0.4,1.3,0.7,1.9,0.8
		c0.6,0.1,1.2,0,1.8-0.3c0.6-0.3,0.9-0.8,1.1-1.4c0.2-0.6,0.3-1.3,0.2-2c-0.1-0.8-0.3-1.6-0.6-2.5
		C380.3,623.7,379.9,622.8,379.3,621.9z"/>
	<path fill="#602E62" d="M409.4,615.8l-14.4-8.2l-0.1,0.1l10,11.9l-4,3.3l-16.2-19.7l4.9-4l14.5,8.4l0.1-0.1l-10.1-12.1l3.8-3.2
		l16.2,19.7L409.4,615.8z"/>
	<path fill="#1E6C50" d="M425.2,580.5c0.5,0.4,0.8,0.8,1,1.3c0.2,0.5,0.4,1,0.4,1.6c0,0.5,0,1.1-0.2,1.6c-0.2,0.5-0.4,1-0.8,1.5
		c-0.4,0.5-0.8,0.8-1.3,1c-0.5,0.2-1,0.4-1.6,0.4c-0.5,0-1.1,0-1.6-0.2s-1-0.4-1.5-0.8c-0.5-0.4-0.8-0.8-1-1.3
		c-0.2-0.5-0.4-1-0.4-1.6c0-0.5,0-1.1,0.2-1.6c0.2-0.5,0.4-1,0.8-1.5c0.4-0.5,0.8-0.8,1.3-1c0.5-0.2,1-0.4,1.6-0.4
		c0.5,0,1.1,0,1.6,0.2C424.2,579.8,424.7,580.1,425.2,580.5z"/>
</g>
<g>
	<path fill="#BCBEC0" d="M132.1,498V391.8h24.3v84h28.4V498H132.1z"/>
	<path fill="#BCBEC0" d="M203.1,498V391.8h51.3V413H226v20.8h26.1v19.8H226v22.8h30.1V498H203.1z"/>
	<path fill="#BCBEC0" d="M324.9,498l-4.3-19.3h-23.9l-4.3,19.3h-24l25.8-106.2h30.2L349.9,498H324.9z M309,414.9h-0.6l-9,45.1h18.2
		L309,414.9z"/>
	<path fill="#BCBEC0" d="M440.7,445.2c0,8-0.9,15.3-2.6,21.8c-1.8,6.5-4.4,12.1-8,16.6c-3.6,4.6-8.2,8.2-13.7,10.7
		c-5.6,2.5-12.1,3.8-19.7,3.8h-29.8V391.8h29.8c7.6,0,14.2,1.3,19.7,3.8c5.5,2.5,10.1,6.1,13.7,10.7c3.6,4.6,6.3,10.3,8,16.8
		C439.8,429.6,440.7,437,440.7,445.2z M416.5,445.2c0-10.7-1.8-18.8-5.5-24.2c-3.7-5.4-8.4-8.2-14.2-8.2H391V477h5.8
		c5.8,0,10.5-2.7,14.2-8.2C414.7,463.4,416.5,455.5,416.5,445.2z"/>
</g>
<polyline fill-rule="evenodd" clip-rule="evenodd" fill="none" stroke="#FFFFFF" stroke-width="2" stroke-miterlimit="10" points="
	142.5,397.9 142.5,487.6 180.2,487.6 "/>
<polyline fill-rule="evenodd" clip-rule="evenodd" fill="none" stroke="#FFFFFF" stroke-width="2" stroke-miterlimit="10" points="
	213,401.8 213,487.6 250.7,487.6 "/>
<line fill-rule="evenodd" clip-rule="evenodd" fill="none" stroke="#FFFFFF" stroke-width="2" stroke-miterlimit="10" x1="212.1" y1="401.8" x2="250.7" y2="401.8"/>
<line fill-rule="evenodd" clip-rule="evenodd" fill="none" stroke="#FFFFFF" stroke-width="2" stroke-miterlimit="10" x1="213" y1="444" x2="249" y2="444"/>
<line fill-rule="evenodd" clip-rule="evenodd" fill="none" stroke="#FFFFFF" stroke-width="2" stroke-miterlimit="10" x1="286.5" y1="469.5" x2="331.5" y2="469.5"/>
<path fill-rule="evenodd" clip-rule="evenodd" fill="none" stroke="#FFFFFF" stroke-width="2" stroke-miterlimit="10" d="
	M379.5,489.6v-87.9c0,0,17.1,0,22.3,0c6.4,0,27.4,5.3,27.4,41.4c0,36.4-16.5,46.3-27.2,46.3C393.4,489.4,379.5,489.6,379.5,489.6z"
	/>
<polyline fill-rule="evenodd" clip-rule="evenodd" fill="none" stroke="#FFFFFF" stroke-width="2" stroke-miterlimit="10" points="
	281.7,493.1 302,398.7 316.5,398.7 336.9,493.1 "/>
<g>
	<path fill="#6A913D" d="M203.3,371.1c-1.3,0.8-3,1.2-5,1.2c-1.8,0-3.5-0.4-5-1.3c-1.5-0.9-2.7-2-3.8-3.6c-1-1.5-1.8-3.3-2.4-5.4
		c-0.6-2.1-0.9-4.4-0.9-6.9c0-2.5,0.3-4.8,0.9-6.9c0.6-2.1,1.4-3.9,2.4-5.4c1-1.5,2.3-2.7,3.8-3.5c1.5-0.8,3.1-1.3,4.9-1.3
		c1.9,0,3.5,0.3,4.9,1c1.4,0.7,2.6,1.7,3.5,3l-3.2,3.9c-1.3-1.8-2.9-2.7-4.9-2.7c-1.1,0-2.1,0.3-2.9,0.9c-0.8,0.6-1.5,1.5-2.1,2.6
		c-0.6,1.1-1,2.3-1.2,3.8c-0.3,1.5-0.4,3-0.4,4.7c0,1.6,0.1,3.2,0.4,4.6c0.3,1.5,0.7,2.7,1.2,3.8c0.6,1.1,1.2,1.9,2.1,2.6
		c0.8,0.6,1.8,0.9,3,0.9c1.1,0,2-0.3,2.8-0.8c0.8-0.6,1.4-1.2,2-2l3.2,3.7C205.8,369.3,204.7,370.3,203.3,371.1z"/>
	<path fill="#6A913D" d="M225.3,371.5l-1.6-6.9h-8.6l-1.7,6.9h-5.5l8.1-32.6h7l8,32.6H225.3z M219.5,344.1h-0.2l-3.5,16.1h7.2
		L219.5,344.1z"/>
	<path fill="#6A913D" d="M235.6,371.5v-32.6h5.6v27.5h9v5.1H235.6z"/>
	<path fill="#6A913D" d="M254.8,371.5v-32.6h5.6v27.5h9v5.1H254.8z"/>
	<path fill="#6A913D" d="M274.1,371.5v-32.6h14.6v4.9h-9.3v8.6h8.6v4.5h-8.6v9.6h9.8v4.9H274.1z"/>
	<path fill="#6A913D" d="M316.3,355.2c0,5.2-1.1,9.1-3.2,12c-2.2,2.8-5.3,4.3-9.5,4.3h-8.1v-32.6h8.2c4.2,0,7.3,1.4,9.5,4.3
		C315.2,346.1,316.3,350.1,316.3,355.2z M310.7,355.2c0-1.9-0.2-3.6-0.5-5.1c-0.4-1.4-0.9-2.6-1.5-3.6c-0.6-1-1.4-1.7-2.3-2.1
		c-0.9-0.5-1.9-0.7-2.9-0.7h-2.6v22.9h2.6c1,0,2-0.2,2.9-0.7c0.9-0.5,1.7-1.2,2.3-2.1c0.6-1,1.1-2.1,1.5-3.6
		C310.6,358.8,310.7,357.1,310.7,355.2z"/>
	<path fill="#6A913D" d="M339.8,343.6v27.9h-5.4v-27.9h-6.1v-4.7h17.7v4.7H339.8z"/>
	<path fill="#6A913D" d="M371.8,355.1c0,2.6-0.3,4.9-0.8,7c-0.5,2.1-1.3,3.9-2.3,5.4c-1,1.5-2.2,2.7-3.7,3.5
		c-1.5,0.8-3.1,1.2-4.9,1.2c-1.8,0-3.5-0.4-4.9-1.2c-1.4-0.8-2.7-2-3.7-3.5c-1-1.5-1.8-3.3-2.3-5.4c-0.5-2.1-0.8-4.4-0.8-7
		c0-2.6,0.3-4.9,0.8-7c0.5-2.1,1.3-3.9,2.3-5.4c1-1.5,2.2-2.7,3.7-3.5c1.5-0.8,3.1-1.2,4.9-1.2c1.8,0,3.4,0.4,4.9,1.2
		c1.5,0.8,2.7,2,3.7,3.5c1,1.5,1.8,3.3,2.3,5.4C371.5,350.2,371.8,352.6,371.8,355.1z M366.1,355.1c0-1.7-0.1-3.2-0.4-4.7
		c-0.3-1.5-0.6-2.7-1.2-3.8c-0.5-1.1-1.1-1.9-1.9-2.5c-0.8-0.6-1.6-0.9-2.6-0.9c-1,0-1.9,0.3-2.6,0.9c-0.8,0.6-1.4,1.4-1.9,2.5
		c-0.5,1.1-0.9,2.3-1.1,3.8c-0.2,1.5-0.4,3-0.4,4.7c0,1.7,0.1,3.2,0.4,4.7c0.2,1.5,0.6,2.7,1.1,3.8c0.5,1.1,1.1,1.9,1.9,2.5
		c0.8,0.6,1.6,0.9,2.6,0.9c1,0,1.9-0.3,2.6-0.9c0.8-0.6,1.4-1.5,1.9-2.5c0.5-1.1,0.9-2.3,1.1-3.8
		C365.9,358.3,366.1,356.8,366.1,355.1z"/>
</g>
<g>
</g>
<g>
</g>
<g>
</g>
<g>
</g>
<g>
</g>
<g>
</g>
</svg>
